<svg width="856" height="174" viewBox="0 0 856 174" fill="none" xmlns="http://www.w3.org/2000/svg">
<path d="M5.05682 101.726V43.5439H28.3523C32.6326 43.5439 36.2027 44.1784 39.0625 45.4473C41.9223 46.7162 44.072 48.4776 45.5114 50.7314C46.9508 52.9662 47.6705 55.542 47.6705 58.4587C47.6705 60.7314 47.2159 62.7295 46.3068 64.453C45.3977 66.1575 44.1477 67.559 42.5568 68.6575C40.9848 69.7371 39.1856 70.5041 37.1591 70.9587V71.5268C39.375 71.6215 41.4489 72.2465 43.3807 73.4018C45.3314 74.5571 46.9129 76.1765 48.125 78.2598C49.3371 80.3242 49.9432 82.7863 49.9432 85.6462C49.9432 88.7333 49.1761 91.489 47.642 93.9132C46.1269 96.3185 43.8826 98.2219 40.9091 99.6234C37.9356 101.025 34.2708 101.726 29.9148 101.726H5.05682ZM17.358 91.6689H27.3864C30.8144 91.6689 33.3144 91.0155 34.8864 89.7087C36.4583 88.3829 37.2443 86.6215 37.2443 84.4246C37.2443 82.8147 36.8561 81.3943 36.0795 80.1632C35.303 78.9321 34.1951 77.9662 32.7557 77.2655C31.3352 76.5647 29.6402 76.2143 27.6705 76.2143H17.358V91.6689ZM17.358 67.8905H26.4773C28.1629 67.8905 29.6591 67.5969 30.9659 67.0098C32.2917 66.4037 33.3333 65.5515 34.0909 64.453C34.8674 63.3545 35.2557 62.0382 35.2557 60.5041C35.2557 58.4018 34.5076 56.7068 33.0114 55.4189C31.5341 54.131 29.4318 53.4871 26.7045 53.4871H17.358V67.8905ZM85.7031 83.1462V58.0893H97.8054V101.726H86.1861V93.7996H85.7315C84.7467 96.3564 83.1084 98.4113 80.8168 99.9643C78.544 101.517 75.7694 102.294 72.4929 102.294C69.5762 102.294 67.0099 101.631 64.794 100.305C62.5781 98.9795 60.8452 97.095 59.5952 94.6518C58.3641 92.2087 57.7391 89.2825 57.7202 85.8734V58.0893H69.8224V83.7143C69.8414 86.2901 70.5327 88.3261 71.8963 89.8223C73.2599 91.3185 75.0876 92.0666 77.3793 92.0666C78.8376 92.0666 80.2012 91.7352 81.4702 91.0723C82.7391 90.3905 83.7618 89.3867 84.5384 88.0609C85.3338 86.7352 85.7221 85.0969 85.7031 83.1462ZM107.486 101.726V58.0893H119.588V101.726H107.486ZM113.565 52.4643C111.766 52.4643 110.223 51.8678 108.935 50.6746C107.666 49.4624 107.031 48.0136 107.031 46.328C107.031 44.6613 107.666 43.2314 108.935 42.0382C110.223 40.8261 111.766 40.22 113.565 40.22C115.365 40.22 116.899 40.8261 118.168 42.0382C119.455 43.2314 120.099 44.6613 120.099 46.328C120.099 48.0136 119.455 49.4624 118.168 50.6746C116.899 51.8678 115.365 52.4643 113.565 52.4643ZM141.385 43.5439V101.726H129.283V43.5439H141.385ZM167.159 102.436C163.845 102.436 160.843 101.584 158.153 99.8791C155.483 98.1556 153.362 95.6272 151.79 92.2939C150.237 88.9416 149.46 84.8318 149.46 79.9643C149.46 74.9643 150.265 70.8071 151.875 67.4928C153.485 64.1594 155.625 61.6689 158.295 60.0212C160.985 58.3545 163.93 57.5212 167.131 57.5212C169.574 57.5212 171.61 57.9378 173.239 58.7712C174.886 59.5856 176.212 60.6083 177.216 61.8393C178.239 63.0515 179.015 64.2446 179.545 65.4189H179.915V43.5439H191.989V101.726H180.057V94.7371H179.545C178.977 95.9492 178.172 97.1518 177.131 98.345C176.108 99.5193 174.773 100.495 173.125 101.271C171.496 102.048 169.508 102.436 167.159 102.436ZM170.994 92.8053C172.945 92.8053 174.593 92.275 175.938 91.2143C177.301 90.1348 178.343 88.6291 179.062 86.6973C179.801 84.7655 180.17 82.5022 180.17 79.9075C180.17 77.3128 179.811 75.059 179.091 73.1462C178.371 71.2333 177.33 69.756 175.966 68.7143C174.602 67.6727 172.945 67.1518 170.994 67.1518C169.006 67.1518 167.33 67.6916 165.966 68.7712C164.602 69.8507 163.57 71.3469 162.869 73.2598C162.169 75.1727 161.818 77.3886 161.818 79.9075C161.818 82.4454 162.169 84.6897 162.869 86.6405C163.589 88.5723 164.621 90.0875 165.966 91.1859C167.33 92.2655 169.006 92.8053 170.994 92.8053ZM209.013 102.464C207.138 102.464 205.528 101.801 204.183 100.476C202.857 99.131 202.195 97.5212 202.195 95.6462C202.195 93.7901 202.857 92.1992 204.183 90.8734C205.528 89.5477 207.138 88.8848 209.013 88.8848C210.831 88.8848 212.422 89.5477 213.786 90.8734C215.149 92.1992 215.831 93.7901 215.831 95.6462C215.831 96.8962 215.509 98.042 214.865 99.0837C214.24 100.106 213.416 100.93 212.393 101.555C211.371 102.161 210.244 102.464 209.013 102.464ZM280.355 62.3507C279.957 60.9681 279.399 59.7465 278.679 58.6859C277.959 57.6064 277.079 56.6973 276.037 55.9587C275.014 55.2011 273.84 54.6234 272.514 54.2257C271.207 53.828 269.759 53.6291 268.168 53.6291C265.194 53.6291 262.58 54.3678 260.327 55.845C258.092 57.3223 256.349 59.4719 255.099 62.2939C253.849 65.0969 253.224 68.5249 253.224 72.578C253.224 76.631 253.84 80.078 255.071 82.9189C256.302 85.7598 258.045 87.9284 260.298 89.4246C262.552 90.9018 265.213 91.6405 268.281 91.6405C271.065 91.6405 273.442 91.1481 275.412 90.1632C277.401 89.1594 278.916 87.7484 279.957 85.9303C281.018 84.1121 281.548 81.9624 281.548 79.4814L284.048 79.8507H269.048V70.5893H293.395V77.9189C293.395 83.0325 292.315 87.4265 290.156 91.1007C287.997 94.756 285.024 97.578 281.236 99.5666C277.448 101.536 273.111 102.521 268.224 102.521C262.77 102.521 257.978 101.319 253.849 98.9132C249.721 96.489 246.501 93.0515 244.19 88.6007C241.899 84.131 240.753 78.828 240.753 72.6916C240.753 67.9757 241.435 63.7712 242.798 60.078C244.181 56.3659 246.113 53.2219 248.594 50.6462C251.075 48.0704 253.963 46.1102 257.259 44.7655C260.554 43.4208 264.124 42.7484 267.969 42.7484C271.264 42.7484 274.332 43.2314 277.173 44.1973C280.014 45.1443 282.533 46.489 284.73 48.2314C286.946 49.9738 288.755 52.0477 290.156 54.453C291.558 56.8393 292.457 59.4719 292.855 62.3507H280.355ZM302.408 101.726V58.0893H314.141V65.703H314.595C315.391 62.9946 316.726 60.9492 318.601 59.5666C320.476 58.1651 322.635 57.4643 325.078 57.4643C325.684 57.4643 326.338 57.5022 327.038 57.578C327.739 57.6537 328.355 57.7579 328.885 57.8905V68.6291C328.317 68.4587 327.531 68.3071 326.527 68.1746C325.523 68.042 324.605 67.9757 323.771 67.9757C321.991 67.9757 320.4 68.364 318.999 69.1405C317.616 69.8981 316.518 70.9587 315.703 72.3223C314.908 73.6859 314.51 75.2579 314.51 77.0382V101.726H302.408ZM352.827 102.578C348.414 102.578 344.598 101.64 341.378 99.7655C338.177 97.8715 335.705 95.239 333.963 91.8678C332.221 88.4776 331.349 84.5477 331.349 80.078C331.349 75.5704 332.221 71.631 333.963 68.2598C335.705 64.8696 338.177 62.2371 341.378 60.3621C344.598 58.4681 348.414 57.5212 352.827 57.5212C357.24 57.5212 361.046 58.4681 364.247 60.3621C367.467 62.2371 369.948 64.8696 371.69 68.2598C373.433 71.631 374.304 75.5704 374.304 80.078C374.304 84.5477 373.433 88.4776 371.69 91.8678C369.948 95.239 367.467 97.8715 364.247 99.7655C361.046 101.64 357.24 102.578 352.827 102.578ZM352.884 93.203C354.891 93.203 356.567 92.6348 357.912 91.4984C359.257 90.3431 360.27 88.7712 360.952 86.7825C361.652 84.7939 362.003 82.5306 362.003 79.9928C362.003 77.4549 361.652 75.1916 360.952 73.203C360.27 71.2143 359.257 69.6424 357.912 68.4871C356.567 67.3318 354.891 66.7541 352.884 66.7541C350.857 66.7541 349.152 67.3318 347.77 68.4871C346.406 69.6424 345.374 71.2143 344.673 73.203C343.991 75.1916 343.651 77.4549 343.651 79.9928C343.651 82.5306 343.991 84.7939 344.673 86.7825C345.374 88.7712 346.406 90.3431 347.77 91.4984C349.152 92.6348 350.857 93.203 352.884 93.203ZM389.688 101.726L377.812 58.0893H390.057L396.818 87.4075H397.216L404.261 58.0893H416.278L423.438 87.2371H423.807L430.455 58.0893H442.67L430.824 101.726H418.011L410.511 74.2825H409.972L402.472 101.726H389.688ZM450.263 102.464C448.388 102.464 446.778 101.801 445.433 100.476C444.107 99.131 443.445 97.5212 443.445 95.6462C443.445 93.7901 444.107 92.1992 445.433 90.8734C446.778 89.5477 448.388 88.8848 450.263 88.8848C452.081 88.8848 453.672 89.5477 455.036 90.8734C456.399 92.1992 457.081 93.7901 457.081 95.6462C457.081 96.8962 456.759 98.042 456.115 99.0837C455.49 100.106 454.666 100.93 453.643 101.555C452.621 102.161 451.494 102.464 450.263 102.464ZM514.588 60.2768C514.361 57.9852 513.385 56.2049 511.662 54.9359C509.938 53.667 507.599 53.0325 504.645 53.0325C502.637 53.0325 500.942 53.3166 499.56 53.8848C498.177 54.434 497.116 55.2011 496.378 56.1859C495.658 57.1708 495.298 58.2882 495.298 59.5382C495.26 60.5799 495.478 61.489 495.952 62.2655C496.444 63.042 497.116 63.7143 497.969 64.2825C498.821 64.8318 499.806 65.3147 500.923 65.7314C502.041 66.1291 503.234 66.47 504.503 66.7541L509.73 68.0041C512.268 68.5723 514.598 69.3299 516.719 70.2768C518.84 71.2238 520.677 72.3886 522.23 73.7712C523.783 75.1537 524.986 76.7825 525.838 78.6575C526.709 80.5325 527.154 82.6821 527.173 85.1064C527.154 88.667 526.245 91.7541 524.446 94.3678C522.666 96.9625 520.09 98.9795 516.719 100.419C513.366 101.839 509.323 102.55 504.588 102.55C499.891 102.55 495.8 101.83 492.315 100.39C488.849 98.9511 486.141 96.8204 484.19 93.9984C482.259 91.1575 481.245 87.6443 481.151 83.4587H493.054C493.187 85.4094 493.745 87.0382 494.73 88.345C495.734 89.6329 497.069 90.6083 498.736 91.2712C500.421 91.9151 502.325 92.2371 504.446 92.2371C506.529 92.2371 508.338 91.934 509.872 91.328C511.425 90.7219 512.628 89.8791 513.48 88.7996C514.332 87.72 514.759 86.4795 514.759 85.078C514.759 83.7712 514.37 82.6727 513.594 81.7825C512.836 80.8924 511.719 80.1348 510.241 79.5098C508.783 78.8848 506.993 78.3166 504.872 77.8053L498.537 76.2143C493.632 75.0212 489.759 73.1556 486.918 70.6178C484.077 68.0799 482.666 64.6613 482.685 60.3621C482.666 56.8393 483.603 53.7617 485.497 51.1291C487.41 48.4965 490.033 46.4416 493.366 44.9643C496.7 43.4871 500.488 42.7484 504.73 42.7484C509.048 42.7484 512.817 43.4871 516.037 44.9643C519.276 46.4416 521.795 48.4965 523.594 51.1291C525.393 53.7617 526.321 56.8109 526.378 60.2768H514.588ZM555.107 102.578C550.618 102.578 546.754 101.669 543.516 99.8507C540.296 98.0136 537.815 95.4189 536.072 92.0666C534.33 88.6954 533.459 84.7087 533.459 80.1064C533.459 75.6178 534.33 71.6784 536.072 68.2882C537.815 64.8981 540.268 62.256 543.43 60.3621C546.612 58.4681 550.343 57.5212 554.624 57.5212C557.502 57.5212 560.182 57.9852 562.663 58.9132C565.163 59.8223 567.341 61.1954 569.197 63.0325C571.072 64.8696 572.531 67.1803 573.572 69.9643C574.614 72.7295 575.135 75.9681 575.135 79.6803V83.0041H538.288V75.5041H563.743C563.743 73.7617 563.364 72.2181 562.607 70.8734C561.849 69.5287 560.798 68.4776 559.453 67.72C558.127 66.9435 556.584 66.5553 554.822 66.5553C552.985 66.5553 551.357 66.9814 549.936 67.8337C548.535 68.667 547.436 69.7939 546.641 71.2143C545.845 72.6159 545.438 74.1784 545.419 75.9018V83.0325C545.419 85.1916 545.817 87.0571 546.612 88.6291C547.427 90.2011 548.572 91.4132 550.05 92.2655C551.527 93.1178 553.279 93.5439 555.305 93.5439C556.65 93.5439 557.881 93.3545 558.999 92.9757C560.116 92.5969 561.072 92.0287 561.868 91.2712C562.663 90.5136 563.269 89.5856 563.686 88.4871L574.879 89.2257C574.311 91.9151 573.146 94.2636 571.385 96.2712C569.643 98.2598 567.389 99.8128 564.624 100.93C561.877 102.029 558.705 102.578 555.107 102.578ZM583.033 101.726V58.0893H594.766V65.703H595.22C596.016 62.9946 597.351 60.9492 599.226 59.5666C601.101 58.1651 603.26 57.4643 605.703 57.4643C606.309 57.4643 606.963 57.5022 607.663 57.578C608.364 57.6537 608.98 57.7579 609.51 57.8905V68.6291C608.942 68.4587 608.156 68.3071 607.152 68.1746C606.148 68.042 605.23 67.9757 604.396 67.9757C602.616 67.9757 601.025 68.364 599.624 69.1405C598.241 69.8981 597.143 70.9587 596.328 72.3223C595.533 73.6859 595.135 75.2579 595.135 77.0382V101.726H583.033ZM657.777 58.0893L642.521 101.726H628.885L613.629 58.0893H626.413L635.476 89.3109H635.93L644.964 58.0893H657.777ZM682.45 102.578C677.962 102.578 674.098 101.669 670.859 99.8507C667.64 98.0136 665.159 95.4189 663.416 92.0666C661.674 88.6954 660.803 84.7087 660.803 80.1064C660.803 75.6178 661.674 71.6784 663.416 68.2882C665.159 64.8981 667.611 62.256 670.774 60.3621C673.956 58.4681 677.687 57.5212 681.967 57.5212C684.846 57.5212 687.526 57.9852 690.007 58.9132C692.507 59.8223 694.685 61.1954 696.541 63.0325C698.416 64.8696 699.875 67.1803 700.916 69.9643C701.958 72.7295 702.479 75.9681 702.479 79.6803V83.0041H665.632V75.5041H691.087C691.087 73.7617 690.708 72.2181 689.95 70.8734C689.193 69.5287 688.142 68.4776 686.797 67.72C685.471 66.9435 683.928 66.5553 682.166 66.5553C680.329 66.5553 678.7 66.9814 677.28 67.8337C675.878 68.667 674.78 69.7939 673.984 71.2143C673.189 72.6159 672.782 74.1784 672.763 75.9018V83.0325C672.763 85.1916 673.161 87.0571 673.956 88.6291C674.77 90.2011 675.916 91.4132 677.393 92.2655C678.871 93.1178 680.623 93.5439 682.649 93.5439C683.994 93.5439 685.225 93.3545 686.342 92.9757C687.46 92.5969 688.416 92.0287 689.212 91.2712C690.007 90.5136 690.613 89.5856 691.03 88.4871L702.223 89.2257C701.655 91.9151 700.49 94.2636 698.729 96.2712C696.986 98.2598 694.732 99.8128 691.967 100.93C689.221 102.029 686.049 102.578 682.45 102.578ZM717.45 102.464C715.575 102.464 713.965 101.801 712.621 100.476C711.295 99.131 710.632 97.5212 710.632 95.6462C710.632 93.7901 711.295 92.1992 712.621 90.8734C713.965 89.5477 715.575 88.8848 717.45 88.8848C719.268 88.8848 720.859 89.5477 722.223 90.8734C723.587 92.1992 724.268 93.7901 724.268 95.6462C724.268 96.8962 723.946 98.042 723.303 99.0837C722.678 100.106 721.854 100.93 720.831 101.555C719.808 102.161 718.681 102.464 717.45 102.464Z" fill="white"/>
<path d="M278.307 37.9196C267.011 37.9196 250.237 34.8046 242.603 45.1527C229.756 62.5682 221.348 94.9948 236.293 113.021C251.614 131.502 272.205 149.091 295.236 156.728C335.533 170.09 379.142 157.238 415.121 137.953C429.66 130.16 450.84 122.24 462.522 109.943C470.807 101.222 476.694 81.3591 473.987 69.6993C471.334 58.2718 461.776 49.4707 453.288 42.0748C439.072 29.6885 423.095 18.9256 405.503 11.9879C374.464 -0.252618 337.198 1.00841 304.623 4.06224C273.586 6.97197 251.04 18.6807 227.059 37.9196C208.062 53.1608 188.86 71.7358 189.893 98.0933C190.636 117.036 207.961 127.881 223.674 134.644C241.824 142.455 261.346 144.774 278.461 133.951C294.834 123.597 310.881 110.182 321.09 93.4764C323.792 89.0559 326.523 84.1799 325.323 78.7792C324.966 77.1751 323.632 74.5521 325.4 78.0867" stroke="#FFA98E" stroke-width="3" stroke-linecap="round"/>
<path d="M8.21797 89.1672C16.4305 89.8516 24.6567 92.2373 32.8415 93.3225C57.9828 96.6556 83.3667 99.0138 108.713 99.94C126.465 100.589 144.198 101.633 161.961 101.633C164.336 101.633 175.69 101.633 167.501 101.633C138.924 101.633 111.264 105.978 83.4736 112.56C77.777 113.909 70.8263 114.27 65.7754 117.484C65.0041 117.975 63.6609 119.331 62.8514 119.562C60.6793 120.182 53.9748 121.024 56.2338 121.024C99.3348 121.024 228.608 123.794 185.507 123.794" stroke="#6C83FF" stroke-width="3" stroke-linecap="round"/>
<path d="M477.758 109.943C486.225 109.943 495.734 111.741 499.919 102.325C503.354 94.5964 510.373 92.1422 518.694 90.6293C522.247 89.9833 527.955 92.9749 531.775 93.3994C538.601 94.1579 544.892 97.0384 551.166 99.4783C565.51 105.057 561.902 87.7819 574.02 85.089C588.233 81.9305 599.26 92.8228 610.724 98.555C622.128 104.257 636.441 90.6588 642.581 81.9341C652.778 67.4436 673.051 88.3035 682.748 94.7075C687.574 97.8941 694.59 103.36 700.754 103.018C706.296 102.71 709.764 94.0079 713.22 90.5523" stroke="#6C83FF" stroke-width="3" stroke-linecap="round"/>
</svg>
